# Blender v2.78 (sub 0) OBJ File: 'battery_bank.blend'
# www.blender.org
o Cube_Cube.001
v -0.400000 -0.400000 0.400000
v -0.400000 0.400000 0.400000
v -0.400000 -0.400000 -0.400000
v -0.400000 0.400000 -0.400000
v 0.400000 -0.400000 0.400000
v 0.400000 0.400000 0.400000
v 0.400000 -0.400000 -0.400000
v 0.400000 0.400000 -0.400000
vt 0.6250 0.0000
vt 0.3750 0.2500
vt 0.3750 0.0000
vt 0.6250 0.2500
vt 0.3750 0.5000
vt 0.6250 0.5000
vt 0.3750 0.7500
vt 0.6250 0.7500
vt 0.3750 1.0000
vt 0.1250 0.7500
vt 0.1250 0.5000
vt 0.8750 0.5000
vt 0.6250 1.0000
vt 0.8750 0.7500
vn -1.0000 0.0000 0.0000
vn 0.0000 0.0000 -1.0000
vn 1.0000 0.0000 0.0000
vn 0.0000 0.0000 1.0000
vn 0.0000 -1.0000 0.0000
vn 0.0000 1.0000 0.0000
s off
f 2/1/1 3/2/1 1/3/1
f 4/4/2 7/5/2 3/2/2
f 8/6/3 5/7/3 7/5/3
f 6/8/4 1/9/4 5/7/4
f 7/5/5 1/10/5 3/11/5
f 4/12/6 6/8/6 8/6/6
f 2/1/1 4/4/1 3/2/1
f 4/4/2 8/6/2 7/5/2
f 8/6/3 6/8/3 5/7/3
f 6/8/4 2/13/4 1/9/4
f 7/5/5 5/7/5 1/10/5
f 4/12/6 2/14/6 6/8/6
