# Blender v2.78 (sub 0) OBJ File: 'ladder_down.blend'
# www.blender.org
v -0.350000 -0.400000 -0.050000
v 0.350000 -0.400000 -0.050000
v -0.350000 -0.435355 -0.035355
v 0.350000 -0.435355 -0.035355
v -0.350000 -0.450000 0.000000
v 0.350000 -0.450000 0.000000
v -0.350000 -0.435355 0.035355
v 0.350000 -0.435355 0.035355
v -0.350000 -0.400000 0.050000
v 0.350000 -0.400000 0.050000
v -0.350000 -0.364645 0.035355
v 0.350000 -0.364645 0.035355
v -0.350000 -0.350000 -0.000000
v 0.350000 -0.350000 -0.000000
v -0.350000 -0.364645 -0.035355
v 0.350000 -0.364645 -0.035355
vt 0.1250 1.0000
vt 0.0000 0.5000
vt 0.1250 0.5000
vt 0.2500 1.0000
vt 0.1250 0.5000
vt 0.2500 0.5000
vt 0.3750 1.0000
vt 0.2500 0.5000
vt 0.3750 0.5000
vt 0.5000 1.0000
vt 0.3750 0.5000
vt 0.5000 0.5000
vt 0.6250 1.0000
vt 0.5000 0.5000
vt 0.6250 0.5000
vt 0.7500 1.0000
vt 0.6250 0.5000
vt 0.7500 0.5000
vt 0.0100 0.2500
vt 0.4197 0.0803
vt 0.4900 0.2500
vt 0.8750 1.0000
vt 0.7500 0.5000
vt 0.8750 0.5000
vt 1.0000 1.0000
vt 0.8750 0.5000
vt 1.0000 0.5000
vt 0.7500 0.0100
vt 0.5803 0.0803
vt 0.5803 0.4197
vt 0.0000 1.0000
vt 0.1250 1.0000
vt 0.2500 1.0000
vt 0.3750 1.0000
vt 0.5000 1.0000
vt 0.6250 1.0000
vt 0.4197 0.4197
vt 0.2500 0.4900
vt 0.0803 0.4197
vt 0.0803 0.0803
vt 0.2500 0.0100
vt 0.7500 1.0000
vt 0.8750 1.0000
vt 0.7500 0.4900
vt 0.9197 0.4197
vt 0.9900 0.2500
vt 0.9197 0.0803
vt 0.5100 0.2500
vn -0.0000 -0.3827 -0.9239
vn -0.0000 -0.9239 -0.3827
vn -0.0000 -0.9239 0.3827
vn -0.0000 -0.3827 0.9239
vn 0.0000 0.3827 0.9239
vn 0.0000 0.9239 0.3827
vn 1.0000 -0.0000 0.0000
vn 0.0000 0.9239 -0.3827
vn 0.0000 0.3827 -0.9239
vn -1.0000 -0.0000 0.0000
s off
f 2/1/1 3/2/1 1/3/1
f 4/4/2 5/5/2 3/6/2
f 6/7/3 7/8/3 5/9/3
f 8/10/4 9/11/4 7/12/4
f 10/13/5 11/14/5 9/15/5
f 12/16/6 13/17/6 11/18/6
f 14/19/7 8/20/7 6/21/7
f 14/22/8 15/23/8 13/24/8
f 16/25/9 1/26/9 15/27/9
f 9/28/10 11/29/10 15/30/10
f 2/1/1 4/31/1 3/2/1
f 4/4/2 6/32/2 5/5/2
f 6/7/3 8/33/3 7/8/3
f 8/10/4 10/34/4 9/11/4
f 10/13/5 12/35/5 11/14/5
f 12/16/6 14/36/6 13/17/6
f 6/21/7 4/37/7 2/38/7
f 2/38/7 16/39/7 6/21/7
f 14/19/7 12/40/7 10/41/7
f 10/41/7 8/20/7 14/19/7
f 6/21/7 16/39/7 14/19/7
f 14/22/8 16/42/8 15/23/8
f 16/25/9 2/43/9 1/26/9
f 15/30/10 1/44/10 3/45/10
f 3/45/10 5/46/10 15/30/10
f 7/47/10 9/28/10 15/30/10
f 11/29/10 13/48/10 15/30/10
f 15/30/10 5/46/10 7/47/10
v -0.350000 -0.200000 -0.050000
v 0.350000 -0.200000 -0.050000
v -0.350000 -0.235355 -0.035355
v 0.350000 -0.235355 -0.035355
v -0.350000 -0.250000 0.000000
v 0.350000 -0.250000 0.000000
v -0.350000 -0.235355 0.035355
v 0.350000 -0.235355 0.035355
v -0.350000 -0.200000 0.050000
v 0.350000 -0.200000 0.050000
v -0.350000 -0.164645 0.035355
v 0.350000 -0.164645 0.035355
v -0.350000 -0.150000 -0.000000
v 0.350000 -0.150000 -0.000000
v -0.350000 -0.164645 -0.035355
v 0.350000 -0.164645 -0.035355
vt 0.1250 1.0000
vt 0.0000 0.5000
vt 0.1250 0.5000
vt 0.2500 1.0000
vt 0.1250 0.5000
vt 0.2500 0.5000
vt 0.3750 1.0000
vt 0.2500 0.5000
vt 0.3750 0.5000
vt 0.5000 1.0000
vt 0.3750 0.5000
vt 0.5000 0.5000
vt 0.6250 1.0000
vt 0.5000 0.5000
vt 0.6250 0.5000
vt 0.7500 1.0000
vt 0.6250 0.5000
vt 0.7500 0.5000
vt 0.0100 0.2500
vt 0.4197 0.0803
vt 0.4900 0.2500
vt 0.8750 1.0000
vt 0.7500 0.5000
vt 0.8750 0.5000
vt 1.0000 1.0000
vt 0.8750 0.5000
vt 1.0000 0.5000
vt 0.7500 0.0100
vt 0.5803 0.0803
vt 0.5803 0.4197
vt 0.0000 1.0000
vt 0.1250 1.0000
vt 0.2500 1.0000
vt 0.3750 1.0000
vt 0.5000 1.0000
vt 0.6250 1.0000
vt 0.4197 0.4197
vt 0.2500 0.4900
vt 0.0803 0.4197
vt 0.0803 0.0803
vt 0.2500 0.0100
vt 0.7500 1.0000
vt 0.8750 1.0000
vt 0.7500 0.4900
vt 0.9197 0.4197
vt 0.9900 0.2500
vt 0.9197 0.0803
vt 0.5100 0.2500
vn -0.0000 -0.3827 -0.9239
vn -0.0000 -0.9239 -0.3827
vn -0.0000 -0.9239 0.3827
vn -0.0000 -0.3827 0.9239
vn 0.0000 0.3827 0.9239
vn 0.0000 0.9239 0.3827
vn 1.0000 -0.0000 0.0000
vn 0.0000 0.9239 -0.3827
vn 0.0000 0.3827 -0.9239
vn -1.0000 -0.0000 0.0000
s off
f 18/49/11 19/50/11 17/51/11
f 20/52/12 21/53/12 19/54/12
f 22/55/13 23/56/13 21/57/13
f 24/58/14 25/59/14 23/60/14
f 26/61/15 27/62/15 25/63/15
f 28/64/16 29/65/16 27/66/16
f 30/67/17 24/68/17 22/69/17
f 30/70/18 31/71/18 29/72/18
f 32/73/19 17/74/19 31/75/19
f 25/76/20 27/77/20 31/78/20
f 18/49/11 20/79/11 19/50/11
f 20/52/12 22/80/12 21/53/12
f 22/55/13 24/81/13 23/56/13
f 24/58/14 26/82/14 25/59/14
f 26/61/15 28/83/15 27/62/15
f 28/64/16 30/84/16 29/65/16
f 22/69/17 20/85/17 30/67/17
f 18/86/17 32/87/17 30/67/17
f 30/67/17 28/88/17 26/89/17
f 26/89/17 24/68/17 30/67/17
f 20/85/17 18/86/17 30/67/17
f 30/70/18 32/90/18 31/71/18
f 32/73/19 18/91/19 17/74/19
f 31/78/20 17/92/20 19/93/20
f 19/93/20 21/94/20 31/78/20
f 23/95/20 25/76/20 31/78/20
f 27/77/20 29/96/20 31/78/20
f 31/78/20 21/94/20 23/95/20
v -0.350000 0.000000 -0.050000
v 0.350000 -0.000000 -0.050000
v -0.350000 -0.035355 -0.035355
v 0.350000 -0.035355 -0.035355
v -0.350000 -0.050000 0.000000
v 0.350000 -0.050000 0.000000
v -0.350000 -0.035355 0.035355
v 0.350000 -0.035355 0.035355
v -0.350000 0.000000 0.050000
v 0.350000 -0.000000 0.050000
v -0.350000 0.035355 0.035355
v 0.350000 0.035355 0.035355
v -0.350000 0.050000 -0.000000
v 0.350000 0.050000 -0.000000
v -0.350000 0.035355 -0.035355
v 0.350000 0.035355 -0.035355
vt 0.1250 1.0000
vt 0.0000 0.5000
vt 0.1250 0.5000
vt 0.2500 1.0000
vt 0.1250 0.5000
vt 0.2500 0.5000
vt 0.3750 1.0000
vt 0.2500 0.5000
vt 0.3750 0.5000
vt 0.5000 1.0000
vt 0.3750 0.5000
vt 0.5000 0.5000
vt 0.6250 1.0000
vt 0.5000 0.5000
vt 0.6250 0.5000
vt 0.7500 1.0000
vt 0.6250 0.5000
vt 0.7500 0.5000
vt 0.0100 0.2500
vt 0.2500 0.0100
vt 0.2500 0.4900
vt 0.8750 1.0000
vt 0.7500 0.5000
vt 0.8750 0.5000
vt 1.0000 0.5000
vt 0.8750 1.0000
vt 0.8750 0.5000
vt 0.7500 0.0100
vt 0.5803 0.0803
vt 0.5803 0.4197
vt 0.0000 1.0000
vt 0.1250 1.0000
vt 0.2500 1.0000
vt 0.3750 1.0000
vt 0.5000 1.0000
vt 0.6250 1.0000
vt 0.4900 0.2500
vt 0.4197 0.4197
vt 0.0803 0.4197
vt 0.0803 0.0803
vt 0.4197 0.0803
vt 0.7500 1.0000
vt 1.0000 1.0000
vt 0.7500 0.4900
vt 0.9197 0.0803
vt 0.9197 0.4197
vt 0.9900 0.2500
vt 0.5100 0.2500
vn -0.0000 -0.3827 -0.9239
vn -0.0000 -0.9239 -0.3827
vn -0.0000 -0.9239 0.3827
vn -0.0000 -0.3827 0.9239
vn 0.0000 0.3827 0.9239
vn 0.0000 0.9239 0.3827
vn 1.0000 0.0000 0.0000
vn 0.0000 0.9239 -0.3827
vn 0.0000 0.3827 -0.9239
vn -1.0000 -0.0000 0.0000
s off
f 34/97/21 35/98/21 33/99/21
f 36/100/22 37/101/22 35/102/22
f 38/103/23 39/104/23 37/105/23
f 40/106/24 41/107/24 39/108/24
f 42/109/25 43/110/25 41/111/25
f 44/112/26 45/113/26 43/114/26
f 46/115/27 42/116/27 34/117/27
f 46/118/28 47/119/28 45/120/28
f 47/121/29 34/122/29 33/123/29
f 41/124/30 43/125/30 47/126/30
f 34/97/21 36/127/21 35/98/21
f 36/100/22 38/128/22 37/101/22
f 38/103/23 40/129/23 39/104/23
f 40/106/24 42/130/24 41/107/24
f 42/109/25 44/131/25 43/110/25
f 44/112/26 46/132/26 45/113/26
f 38/133/27 36/134/27 34/117/27
f 34/117/27 48/135/27 46/115/27
f 46/115/27 44/136/27 42/116/27
f 42/116/27 40/137/27 38/133/27
f 38/133/27 34/117/27 42/116/27
f 46/118/28 48/138/28 47/119/28
f 47/121/29 48/139/29 34/122/29
f 47/126/30 33/140/30 39/141/30
f 35/142/30 37/143/30 39/141/30
f 39/141/30 41/124/30 47/126/30
f 43/125/30 45/144/30 47/126/30
f 33/140/30 35/142/30 39/141/30
v -0.350000 0.200000 -0.050000
v 0.350000 0.200000 -0.050000
v -0.350000 0.164645 -0.035355
v 0.350000 0.164645 -0.035355
v -0.350000 0.150000 0.000000
v 0.350000 0.150000 0.000000
v -0.350000 0.164645 0.035355
v 0.350000 0.164645 0.035355
v -0.350000 0.200000 0.050000
v 0.350000 0.200000 0.050000
v -0.350000 0.235355 0.035355
v 0.350000 0.235355 0.035355
v -0.350000 0.250000 -0.000000
v 0.350000 0.250000 -0.000000
v -0.350000 0.235355 -0.035355
v 0.350000 0.235355 -0.035355
vt 0.1250 1.0000
vt 0.0000 0.5000
vt 0.1250 0.5000
vt 0.2500 1.0000
vt 0.1250 0.5000
vt 0.2500 0.5000
vt 0.3750 1.0000
vt 0.2500 0.5000
vt 0.3750 0.5000
vt 0.5000 1.0000
vt 0.3750 0.5000
vt 0.5000 0.5000
vt 0.6250 1.0000
vt 0.5000 0.5000
vt 0.6250 0.5000
vt 0.7500 1.0000
vt 0.6250 0.5000
vt 0.7500 0.5000
vt 0.0100 0.2500
vt 0.2500 0.0100
vt 0.4900 0.2500
vt 0.8750 1.0000
vt 0.7500 0.5000
vt 0.8750 0.5000
vt 1.0000 1.0000
vt 0.8750 0.5000
vt 1.0000 0.5000
vt 0.7500 0.0100
vt 0.5803 0.0803
vt 0.5803 0.4197
vt 0.0000 1.0000
vt 0.1250 1.0000
vt 0.2500 1.0000
vt 0.3750 1.0000
vt 0.5000 1.0000
vt 0.6250 1.0000
vt 0.4197 0.4197
vt 0.2500 0.4900
vt 0.0803 0.4197
vt 0.0803 0.0803
vt 0.4197 0.0803
vt 0.7500 1.0000
vt 0.8750 1.0000
vt 0.7500 0.4900
vt 0.9197 0.4197
vt 0.9900 0.2500
vt 0.9197 0.0803
vt 0.5100 0.2500
vn -0.0000 -0.3827 -0.9239
vn -0.0000 -0.9239 -0.3827
vn -0.0000 -0.9239 0.3827
vn -0.0000 -0.3827 0.9239
vn 0.0000 0.3827 0.9239
vn 0.0000 0.9239 0.3827
vn 1.0000 0.0000 0.0000
vn 0.0000 0.9239 -0.3827
vn 0.0000 0.3827 -0.9239
vn -1.0000 -0.0000 0.0000
s off
f 50/145/31 51/146/31 49/147/31
f 52/148/32 53/149/32 51/150/32
f 54/151/33 55/152/33 53/153/33
f 56/154/34 57/155/34 55/156/34
f 58/157/35 59/158/35 57/159/35
f 60/160/36 61/161/36 59/162/36
f 62/163/37 58/164/37 54/165/37
f 62/166/38 63/167/38 61/168/38
f 64/169/39 49/170/39 63/171/39
f 57/172/40 59/173/40 63/174/40
f 50/145/31 52/175/31 51/146/31
f 52/148/32 54/176/32 53/149/32
f 54/151/33 56/177/33 55/152/33
f 56/154/34 58/178/34 57/155/34
f 58/157/35 60/179/35 59/158/35
f 60/160/36 62/180/36 61/161/36
f 54/165/37 52/181/37 50/182/37
f 50/182/37 64/183/37 54/165/37
f 62/163/37 60/184/37 58/164/37
f 58/164/37 56/185/37 54/165/37
f 54/165/37 64/183/37 62/163/37
f 62/166/38 64/186/38 63/167/38
f 64/169/39 50/187/39 49/170/39
f 63/174/40 49/188/40 51/189/40
f 51/189/40 53/190/40 63/174/40
f 55/191/40 57/172/40 63/174/40
f 59/173/40 61/192/40 63/174/40
f 63/174/40 53/190/40 55/191/40
v -0.350000 0.400000 -0.050000
v 0.350000 0.400000 -0.050000
v -0.350000 0.364645 -0.035355
v 0.350000 0.364645 -0.035355
v -0.350000 0.350000 0.000000
v 0.350000 0.350000 0.000000
v -0.350000 0.364645 0.035355
v 0.350000 0.364645 0.035355
v -0.350000 0.400000 0.050000
v 0.350000 0.400000 0.050000
v -0.350000 0.435355 0.035355
v 0.350000 0.435355 0.035355
v -0.350000 0.450000 -0.000000
v 0.350000 0.450000 -0.000000
v -0.350000 0.435355 -0.035355
v 0.350000 0.435355 -0.035355
vt 0.1250 1.0000
vt 0.0000 0.5000
vt 0.1250 0.5000
vt 0.2500 1.0000
vt 0.1250 0.5000
vt 0.2500 0.5000
vt 0.3750 1.0000
vt 0.2500 0.5000
vt 0.3750 0.5000
vt 0.5000 1.0000
vt 0.3750 0.5000
vt 0.5000 0.5000
vt 0.6250 1.0000
vt 0.5000 0.5000
vt 0.6250 0.5000
vt 0.7500 1.0000
vt 0.6250 0.5000
vt 0.7500 0.5000
vt 0.0100 0.2500
vt 0.4197 0.0803
vt 0.4900 0.2500
vt 0.8750 1.0000
vt 0.7500 0.5000
vt 0.8750 0.5000
vt 1.0000 1.0000
vt 0.8750 0.5000
vt 1.0000 0.5000
vt 0.7500 0.0100
vt 0.5803 0.0803
vt 0.5803 0.4197
vt 0.0000 1.0000
vt 0.1250 1.0000
vt 0.2500 1.0000
vt 0.3750 1.0000
vt 0.5000 1.0000
vt 0.6250 1.0000
vt 0.4197 0.4197
vt 0.2500 0.4900
vt 0.0803 0.4197
vt 0.0803 0.0803
vt 0.2500 0.0100
vt 0.7500 1.0000
vt 0.8750 1.0000
vt 0.7500 0.4900
vt 0.9197 0.4197
vt 0.9900 0.2500
vt 0.9197 0.0803
vt 0.5100 0.2500
vn -0.0000 -0.3827 -0.9239
vn -0.0000 -0.9239 -0.3827
vn -0.0000 -0.9239 0.3827
vn -0.0000 -0.3827 0.9239
vn 0.0000 0.3827 0.9239
vn 0.0000 0.9239 0.3827
vn 1.0000 -0.0000 0.0000
vn 0.0000 0.9239 -0.3827
vn 0.0000 0.3827 -0.9239
vn -1.0000 -0.0000 0.0000
s off
f 66/193/41 67/194/41 65/195/41
f 68/196/42 69/197/42 67/198/42
f 70/199/43 71/200/43 69/201/43
f 72/202/44 73/203/44 71/204/44
f 74/205/45 75/206/45 73/207/45
f 76/208/46 77/209/46 75/210/46
f 78/211/47 72/212/47 70/213/47
f 78/214/48 79/215/48 77/216/48
f 80/217/49 65/218/49 79/219/49
f 73/220/50 75/221/50 79/222/50
f 66/193/41 68/223/41 67/194/41
f 68/196/42 70/224/42 69/197/42
f 70/199/43 72/225/43 71/200/43
f 72/202/44 74/226/44 73/203/44
f 74/205/45 76/227/45 75/206/45
f 76/208/46 78/228/46 77/209/46
f 70/213/47 68/229/47 66/230/47
f 66/230/47 80/231/47 70/213/47
f 78/211/47 76/232/47 74/233/47
f 74/233/47 72/212/47 78/211/47
f 70/213/47 80/231/47 78/211/47
f 78/214/48 80/234/48 79/215/48
f 80/217/49 66/235/49 65/218/49
f 79/222/50 65/236/50 67/237/50
f 67/237/50 69/238/50 79/222/50
f 71/239/50 73/220/50 79/222/50
f 75/221/50 77/240/50 79/222/50
f 79/222/50 69/238/50 71/239/50
v 0.300000 -0.500000 -0.100000
v 0.300000 0.500000 -0.100000
v 0.370711 -0.500000 -0.070711
v 0.370711 0.500000 -0.070711
v 0.400000 -0.500000 0.000000
v 0.400000 0.500000 0.000000
v 0.370711 -0.500000 0.070711
v 0.370711 0.500000 0.070711
v 0.300000 -0.500000 0.100000
v 0.300000 0.500000 0.100000
v 0.229289 -0.500000 0.070711
v 0.229289 0.500000 0.070711
v 0.200000 -0.500000 -0.000000
v 0.200000 0.500000 -0.000000
v 0.229289 -0.500000 -0.070711
v 0.229289 0.500000 -0.070711
vt 0.1250 1.0000
vt 0.0000 0.5000
vt 0.1250 0.5000
vt 0.2500 1.0000
vt 0.1250 0.5000
vt 0.2500 0.5000
vt 0.3750 1.0000
vt 0.2500 0.5000
vt 0.3750 0.5000
vt 0.5000 1.0000
vt 0.3750 0.5000
vt 0.5000 0.5000
vt 0.6250 1.0000
vt 0.5000 0.5000
vt 0.6250 0.5000
vt 0.7500 1.0000
vt 0.6250 0.5000
vt 0.7500 0.5000
vt 0.0100 0.2500
vt 0.2500 0.0100
vt 0.4900 0.2500
vt 0.8750 1.0000
vt 0.7500 0.5000
vt 0.8750 0.5000
vt 1.0000 1.0000
vt 0.8750 0.5000
vt 1.0000 0.5000
vt 0.9197 0.0803
vt 0.5803 0.0803
vt 0.5803 0.4197
vt 0.0000 1.0000
vt 0.1250 1.0000
vt 0.2500 1.0000
vt 0.3750 1.0000
vt 0.5000 1.0000
vt 0.6250 1.0000
vt 0.4197 0.4197
vt 0.2500 0.4900
vt 0.0803 0.4197
vt 0.0803 0.0803
vt 0.4197 0.0803
vt 0.7500 1.0000
vt 0.8750 1.0000
vt 0.7500 0.4900
vt 0.9197 0.4197
vt 0.9900 0.2500
vt 0.7500 0.0100
vt 0.5100 0.2500
vn 0.3827 0.0000 -0.9239
vn 0.9239 0.0000 -0.3827
vn 0.9239 0.0000 0.3827
vn 0.3827 0.0000 0.9239
vn -0.3827 0.0000 0.9239
vn -0.9239 0.0000 0.3827
vn 0.0000 1.0000 0.0000
vn -0.9239 0.0000 -0.3827
vn -0.3827 0.0000 -0.9239
vn 0.0000 -1.0000 0.0000
s off
f 82/241/51 83/242/51 81/243/51
f 84/244/52 85/245/52 83/246/52
f 86/247/53 87/248/53 85/249/53
f 88/250/54 89/251/54 87/252/54
f 90/253/55 91/254/55 89/255/55
f 92/256/56 93/257/56 91/258/56
f 94/259/57 90/260/57 86/261/57
f 94/262/58 95/263/58 93/264/58
f 96/265/59 81/266/59 95/267/59
f 87/268/60 91/269/60 95/270/60
f 82/241/51 84/271/51 83/242/51
f 84/244/52 86/272/52 85/245/52
f 86/247/53 88/273/53 87/248/53
f 88/250/54 90/274/54 89/251/54
f 90/253/55 92/275/55 91/254/55
f 92/256/56 94/276/56 93/257/56
f 86/261/57 84/277/57 82/278/57
f 82/278/57 96/279/57 86/261/57
f 94/259/57 92/280/57 90/260/57
f 90/260/57 88/281/57 86/261/57
f 86/261/57 96/279/57 94/259/57
f 94/262/58 96/282/58 95/263/58
f 96/265/59 82/283/59 81/266/59
f 95/270/60 81/284/60 87/268/60
f 83/285/60 85/286/60 87/268/60
f 87/268/60 89/287/60 91/269/60
f 91/269/60 93/288/60 95/270/60
f 81/284/60 83/285/60 87/268/60
v -0.300000 -0.500000 -0.100000
v -0.300000 0.500000 -0.100000
v -0.229289 -0.500000 -0.070711
v -0.229289 0.500000 -0.070711
v -0.200000 -0.500000 0.000000
v -0.200000 0.500000 0.000000
v -0.229289 -0.500000 0.070711
v -0.229289 0.500000 0.070711
v -0.300000 -0.500000 0.100000
v -0.300000 0.500000 0.100000
v -0.370711 -0.500000 0.070711
v -0.370711 0.500000 0.070711
v -0.400000 -0.500000 -0.000000
v -0.400000 0.500000 -0.000000
v -0.370711 -0.500000 -0.070711
v -0.370711 0.500000 -0.070711
vt 0.1250 1.0000
vt 0.0000 0.5000
vt 0.1250 0.5000
vt 0.2500 1.0000
vt 0.1250 0.5000
vt 0.2500 0.5000
vt 0.3750 1.0000
vt 0.2500 0.5000
vt 0.3750 0.5000
vt 0.5000 1.0000
vt 0.3750 0.5000
vt 0.5000 0.5000
vt 0.6250 1.0000
vt 0.5000 0.5000
vt 0.6250 0.5000
vt 0.7500 1.0000
vt 0.6250 0.5000
vt 0.7500 0.5000
vt 0.0100 0.2500
vt 0.2500 0.0100
vt 0.4900 0.2500
vt 0.8750 1.0000
vt 0.7500 0.5000
vt 0.8750 0.5000
vt 1.0000 1.0000
vt 0.8750 0.5000
vt 1.0000 0.5000
vt 0.9197 0.0803
vt 0.5803 0.0803
vt 0.5803 0.4197
vt 0.0000 1.0000
vt 0.1250 1.0000
vt 0.2500 1.0000
vt 0.3750 1.0000
vt 0.5000 1.0000
vt 0.6250 1.0000
vt 0.4197 0.4197
vt 0.2500 0.4900
vt 0.0803 0.4197
vt 0.0803 0.0803
vt 0.4197 0.0803
vt 0.7500 1.0000
vt 0.8750 1.0000
vt 0.7500 0.4900
vt 0.9197 0.4197
vt 0.9900 0.2500
vt 0.7500 0.0100
vt 0.5100 0.2500
vn 0.3827 0.0000 -0.9239
vn 0.9239 0.0000 -0.3827
vn 0.9239 0.0000 0.3827
vn 0.3827 0.0000 0.9239
vn -0.3827 0.0000 0.9239
vn -0.9239 0.0000 0.3827
vn 0.0000 1.0000 0.0000
vn -0.9239 0.0000 -0.3827
vn -0.3827 0.0000 -0.9239
vn 0.0000 -1.0000 0.0000
s off
f 98/289/61 99/290/61 97/291/61
f 100/292/62 101/293/62 99/294/62
f 102/295/63 103/296/63 101/297/63
f 104/298/64 105/299/64 103/300/64
f 106/301/65 107/302/65 105/303/65
f 108/304/66 109/305/66 107/306/66
f 110/307/67 106/308/67 102/309/67
f 110/310/68 111/311/68 109/312/68
f 112/313/69 97/314/69 111/315/69
f 103/316/70 107/317/70 111/318/70
f 98/289/61 100/319/61 99/290/61
f 100/292/62 102/320/62 101/293/62
f 102/295/63 104/321/63 103/296/63
f 104/298/64 106/322/64 105/299/64
f 106/301/65 108/323/65 107/302/65
f 108/304/66 110/324/66 109/305/66
f 102/309/67 100/325/67 98/326/67
f 98/326/67 112/327/67 102/309/67
f 110/307/67 108/328/67 106/308/67
f 106/308/67 104/329/67 102/309/67
f 102/309/67 112/327/67 110/307/67
f 110/310/68 112/330/68 111/311/68
f 112/313/69 98/331/69 97/314/69
f 111/318/70 97/332/70 103/316/70
f 99/333/70 101/334/70 103/316/70
f 103/316/70 105/335/70 107/317/70
f 107/317/70 109/336/70 111/318/70
f 97/332/70 99/333/70 103/316/70
