<svg id="Layer_1" data-name="Layer 1" xmlns="http://www.w3.org/2000/svg" viewBox="0 0 200 200"><defs><style>.cls-1{stroke:#000;stroke-miterlimit:10;}</style></defs><title>Artboard 3</title><path class="cls-1" d="M41.13,76.08l2.47.32H47Q58.2,77.58,58.2,79.08a1.43,1.43,0,0,1,1.25.91q3,0,5.4,6a1.62,1.62,0,0,0,.36.53,71.67,71.67,0,0,1,6.25,8.72l.38.41q.7.39,2,4.79a2,2,0,0,0,.47.78,3.74,3.74,0,0,1,.45,2.07,1.66,1.66,0,0,0,.4,1.06q1.34,1.44,3.84,10a1.81,1.81,0,0,0,.15.37q5,9,6.36,14.74a1.6,1.6,0,0,0,.13.36,77.49,77.49,0,0,1,4.9,12.46h.27l1-3.5c0-.09-.22-1.64-.22-1.64l.22-1.17-.49-14.71s0-.08,0-.12l.27-9.57-.27-2.41-.27-5q0-.08,0-.17l.27-8.38q0-12.56-3-15.3a5.41,5.41,0,0,1-2-2.15v-.26h.22a14.71,14.71,0,0,0,4.43,1.15,1,1,0,0,0,.75-.23,5.85,5.85,0,0,1,2.58-.66q0-.52,1.79-.59l10.15-2.49-2.89,2.82q0,.36-2.36,1.33a1.45,1.45,0,0,0-.56.47,17.66,17.66,0,0,1-3.13,2.52,1.52,1.52,0,0,0-.4.41L96,83.89l.22,1.24a15.75,15.75,0,0,0-1.46,7.49l-.27.91V98s0,.07,0,.11l.47,8.35a2,2,0,0,1-.07.62,35.46,35.46,0,0,0-.66,5.77c0,.16.26,1.74.26,1.74l-.49.91a14.82,14.82,0,0,1,.76,3.91V120l-.53,4.71a2,2,0,0,0,0,.22v4.75c0,.14.27,1.45.27,1.45l-.27,2.26c0,.27.53,1.8.52,2.11l-.51,9.7s0,.07,0,.1v3.27q0,2.51,3.71,10.63a1.73,1.73,0,0,1,.12.36,24.77,24.77,0,0,0,4.19,9.7q0,.65,2.55,3.64a32.22,32.22,0,0,1,4,3.59,1.7,1.7,0,0,0,.46.51,18.82,18.82,0,0,0,10.5,3.39h1q4.3,0,9.34-4.07a1.68,1.68,0,0,0,.35-.39c.86-1.34-1.21,4.36-8.05,6.83l-.24.06-3.62.57h-1l-.49.65q-3,0-10.24-2.73V181l-1.25-1.17-.76-.33v-.59l-4-2.81a1.22,1.22,0,0,1-1-.35l-4.36-4.21a1.65,1.65,0,0,1-.31-.43q-.93-1.83-1.39-1.83l.27-1.5v-.33l-6.14-8.78a1.65,1.65,0,0,1-.22-.44q-1.21-3.7-5.89-11.08l-.09-.16a67.89,67.89,0,0,1-5.15-14.35,1.87,1.87,0,0,0-.23-.62L75,129.91l.49-2.08a33.49,33.49,0,0,0-4.25-9.57l-.06-.12L65,105.24l-3.52-7.81q-2.56-5.8-4.5-6.53a1.34,1.34,0,0,1-.72-.64v0c-.74-1.36-2.52-.71-2.52.92V123.6c0,6.1-.74,17.53-.7,17.71a99,99,0,0,1,1.17,10.56c0,.2,2.71,5.71,3.91,6,.22.05,4.26,3,4.89,3v.59S59.35,161,58,160.19a21.77,21.77,0,0,0-4.68.12s-2.63.16-3.39-.26c-.31-.17-4.4.65-8.28,1.18v-.59q9.27-2.54,9.27-11.13V136s0-.08,0-.12l.48-8a2,2,0,0,0,0-.22l-.48-9.46s0-.08,0-.12a37.45,37.45,0,0,1,.76-5.91V109a2,2,0,0,0,0-.32l-.49-3a2,2,0,0,1,0-.32v-4a2,2,0,0,0,0-.2,33.07,33.07,0,0,0,.55-3.8l-.53-4.71a2,2,0,0,1,0-.22V86.16a7.69,7.69,0,0,0-6.72-5.71,4.78,4.78,0,0,0-.57-.14h-2a19.71,19.71,0,0,0-10.13,2.6c-.07,0-1.9,1.56-1.9,1.56s-3.67,3.15-4.71,6.31c-1.34,3.86-3.2,14.41-2.59,19.94.45,4.13,5.17,8.31,8.33,8.63,4.71.48,10.22-10.66,10.22-10.66a2,2,0,0,0,0-.28v-3.76q0-6.64-5-6.64l-.27-.26q-6.63,1.41-6.72,7.89a2.6,2.6,0,0,0,0,.36q.57,4.38,3,4.38,1.4,0,2.72-1.92a1.82,1.82,0,0,0,.3-1.1c-.11-2.2.72-2,.72-.62v.65q-.87,5.4-4,5.4h-.49q-2.42,0-4.38-5.4a2,2,0,0,1-.12-.68V104.3a2.1,2.1,0,0,1,0-.45Q28.87,95,32.4,95q7.42,0,9.27,3a19.07,19.07,0,0,1,2.22,8.72q0,7.51-6.06,15.46a10.63,10.63,0,0,1-4,1.4H29.64c-2.53,0-9.58-6.38-9.65-6.53a18.2,18.2,0,0,1-1.89-8.51s1.12-15,3.37-17.29c.1-.1-.77-1.59,3.77-9C28.4,79.7,33.79,76.08,41.13,76.08Zm55.11,0"/><path class="cls-1" d="M171.47,22.07c-2.14.78-3.2,1.78-3.2,3a2.68,2.68,0,0,0,1.79,2.47h.27v-.26l-.92-1.63A2.46,2.46,0,0,1,171.9,24h.7c2.07,0,3.21.83,3.42,2.47v1.11l-.71,1.37q-6,3.91-8.89,3.9-1,1-7.32,1.63v-.85l-4.11.59a75.6,75.6,0,0,0-12.85-1.11H133l-1.08.09h-.09c-1.6.27-3.21.57-4.82.75a17.38,17.38,0,0,1-6.28-.31h-2.8l-.71-.52h-1.84q0,1-6.4,1.89v.32l.23.27v.26L103,37.43q-8,4-13.28,14.07c-.9,5.11-1.49,7.68-1.79,7.68l.22,2.73v2.22c1.45,2,2.83,3,4.12,3h.65l1.42-.26q4.33-2.28,4.33-5.21a3.5,3.5,0,0,0-2.54-3.58l-1.57.26v.59a2.08,2.08,0,0,1,2.27,1.36v.27c0,1.56-1,2.58-3,3l-.65-.32c-.95,0-1.41-1.28-1.41-3.84q0-6.18,6.39-11.26a17,17,0,0,0,4.12-2.74v-.26l-.22-.32V44.6h1.13l1.42-.53h.22l.22.26,1.36-.26h5.3c1.67,0,4.87.94,9.57,2.8a9.48,9.48,0,0,1,6.16,4.26,26.38,26.38,0,0,1,6.23,7.53l.54,1.42.16.2v.23l.43,1.14H135q3.9,12.7,3.9,20.64l-1.14,12.89v2.21q0,7.16-.71,9.64-2.65,6.7-5.68,9.89-3.1,7.94-18.32,7.95l-6.88-3.32q-6.66-3.46-9.8-13.15l-.71-6.9c.6-9.49,4.34-14,4.34-14q4.89-6.91,11-6.9h1.14c1.08,0,2.76,1.47,5,4.42.69,0,1.45,2.39,2.27,7.16l-.22,1.89c0,3-1.6,5.1-4.82,6.32l-2.5-.52a13.43,13.43,0,0,1-2.54-5.47c.29-2.22,1.2-3.32,2.76-3.32.25,0,.55.54.91,1.63a2.12,2.12,0,0,1-1.84,2.21v.52h1.62A2.83,2.83,0,0,0,114.24,93V91.07a5.14,5.14,0,0,0-1.84-2h-1.57q-2.82,0-4.12,6.63v2.74q0,6.78,4.12,9a18,18,0,0,0,6.39-.78q7.32-4.55,7.32-15.43l-.39-4.43A6.42,6.42,0,0,1,123,84.16c-.11-.72-.3-1.37-.47-2.06l-.22-.54-.62-1.67q-3.65-5.35-9.33-5.36c-9,0-12.32,1-16.26,11.59,0,0-3.29,5.52-4.34,14.84l.22,5.8q3.36,12.24,7.8,15.87,5,5.48,14.63,5.47h3.69a17.75,17.75,0,0,0,8-1.89c2.71-.64,4.15-1.38,4.34-2.21a5.32,5.32,0,0,0,2.27-1.63c2.61-1.3,3.9-2.41,3.9-3.32q1.46-.26,6.39-6.57a24.61,24.61,0,0,0,3.69-9q3.41-10.42,3.41-11.85l-.7-6,.27-1.37,1.57-2.74v-.26l4.12-1.1.48.52,3.41-2.74a14.66,14.66,0,0,0,6.8-5.52c3.08-2.63,3-8.49-.7-5.44a4,4,0,0,1-.5.32Q159.49,74,152,74h-1.85a5.12,5.12,0,0,0-1.36-2.21,37.57,37.57,0,0,0-2.32-9v-.21a11.24,11.24,0,0,1-1.39-2.84l-2-3q-5-6.89-9.85-9c-3.47-2.6-5.82-3.9-7-3.9v-.26q.65-1.37,2.93-1.37h.48l1.14.26,1.36-.26h1.41l13,.59q.54-.59,6.66-1.43l3.9,1.1h3.2q4.39,0,9.81-3.25,9.37-6.85,9.37-11c0-3.51-1.76-5.53-5.26-6"/></svg>