<svg id="Layer_1" data-name="Layer 1" xmlns="http://www.w3.org/2000/svg" viewBox="0 0 841 158.08"><defs><style>.cls-1{fill:#fff;stroke:#231f20;stroke-miterlimit:10;}</style></defs><title>Artboard 1</title><path class="cls-1" d="M36.9,15.48l3.91.42h5.35q17.72,1.54,17.72,3.5a2.28,2.28,0,0,1,2,1.2q4.67,0,8.53,7.89a2.15,2.15,0,0,0,.56.7q2.48,2.05,9.87,11.47l.6.55q1.11.51,3.1,6.3a2.54,2.54,0,0,0,.75,1q.6.55.71,2.72a2,2,0,0,0,.63,1.39q2.12,1.89,6.07,13.17a2.18,2.18,0,0,0,.24.49q8,11.81,10.06,19.4a1.88,1.88,0,0,0,.2.47,92.62,92.62,0,0,1,7.74,16.39h.43L116.9,98c0-.12-.34-2.16-.34-2.16l.34-1.54-.77-19.36q0-.08,0-.16l.43-12.6L116.13,59l-.42-6.57a2.17,2.17,0,0,1,0-.22l.42-11q0-16.53-4.71-20.13a7.82,7.82,0,0,1-3.17-2.83v-.34h.34a27.09,27.09,0,0,0,7,1.51,1.81,1.81,0,0,0,1.18-.3q.74-.54,4.07-.87,0-.69,2.83-.77h11.48v.43q0,.48-3.73,1.76a2.24,2.24,0,0,0-.89.62,27.48,27.48,0,0,1-4.95,3.32,2.23,2.23,0,0,0-.62.54l-1.29,1.64.34,1.63q-2.31,3.51-2.31,9.85l-.43,1.2v5.84s0,.1,0,.15l.74,11a2.24,2.24,0,0,1-.1.81,39.25,39.25,0,0,0-1,7.59c0,.21.41,2.29.41,2.29l-.77,1.2a16.72,16.72,0,0,1,1.2,5.14v.86l-.84,6.19a2.17,2.17,0,0,0,0,.29V86c0,.19.43,1.91.43,1.91l-.43,3c0,.35.84,2.37.82,2.77l-.81,12.77s0,.09,0,.14v4.3q0,3.31,5.87,14a2,2,0,0,1,.19.48,30.13,30.13,0,0,0,6.62,12.77q0,.85,4,4.8s5.45,3.5,6.39,4.72a2.45,2.45,0,0,0,.73.67,34,34,0,0,0,16.6,4.46h1.54q6.8,0,14.76-5.35a2.41,2.41,0,0,0,.55-.52c1.35-1.76-1.91,5.74-12.73,9a2.4,2.4,0,0,1-.38.08l-5.72.75h-1.63l-.77.86q-4.8,0-16.19-3.6v-.43l-2-1.54-1.2-.43v-.77l-6.3-3.69a2.17,2.17,0,0,1-1.59-.47l-6.89-5.54a2.23,2.23,0,0,1-.49-.57q-1.48-2.41-2.2-2.41l.43-2v-.43l-9.71-11.55a2.05,2.05,0,0,1-.34-.58q-1.91-4.86-9.31-14.58l-.14-.21c-4.18-7-7.39-15.47-8.14-18.88a2.23,2.23,0,0,0-.37-.82l-2-2.8.77-2.74Q90,78.72,84.5,71l-.1-.16-9.8-17L69,43.58q-4-7.64-7.11-8.6a2,2,0,0,1-1.14-.84l0,0a2.17,2.17,0,0,0-4,1.2V78c0,8-1.17,23.07-1.11,23.3a109.48,109.48,0,0,1,1.85,13.9c0,.26,4.28,7.51,6.19,7.89.34.07,6.74,4,7.73,4v.77s-5.71-.57-7.82-1.7a41.28,41.28,0,0,0-7.4.15s-4.16.21-5.36-.35c-.48-.23-6.95.85-13.08,1.55v-.77q14.65-3.34,14.65-14.65V94.36q0-.08,0-.16l.75-10.49a2.17,2.17,0,0,0,0-.29L52.41,71c0-.05,0-.11,0-.16A41.55,41.55,0,0,1,53.6,63V58.86a2.17,2.17,0,0,0,0-.42l-.78-4a2.17,2.17,0,0,1,0-.42V48.85a2.17,2.17,0,0,0,0-.27,36.77,36.77,0,0,0,.87-5l-.84-6.19a2.17,2.17,0,0,1,0-.29V28.75c0-.64-2.27-6.63-10.61-7.51a8.82,8.82,0,0,0-.9-.19H38.1a36.16,36.16,0,0,0-16,3.43c-.12.06-3,2.06-3,2.06s-5.8,4.14-7.45,8.31c-2.11,5.08-5.06,19-4.09,26.25C8.25,66.52,15.72,72,20.71,72.44c7.45.63,16.16-14,16.16-14a2.17,2.17,0,0,0,0-.37v-5q0-8.74-7.88-8.74L28.59,44Q18.12,45.87,18,54.39a2.86,2.86,0,0,0,0,.47q.9,5.76,4.68,5.76,2.22,0,4.3-2.53a2.11,2.11,0,0,0,.47-1.44c-.18-2.89,1.14-2.62,1.14-.82v.86q-1.37,7.11-6.34,7.11h-.77q-3.83,0-6.92-7.11a2.25,2.25,0,0,1-.18-.89V52.61a2.32,2.32,0,0,1,.08-.59q3.08-11.61,8.66-11.61,11.73,0,14.65,3.94a21.84,21.84,0,0,1,3.51,11.48q0,9.88-9.58,20.35A19,19,0,0,1,25.43,78H18.74c-4,0-15.14-8.4-15.25-8.59a20.7,20.7,0,0,1-3-11.2S2.27,38.46,5.83,35.47c.16-.13-1.22-2.09,6-11.89A44.69,44.69,0,0,1,36.9,15.48Zm87.11,0,23,81.54.34.43h.43q0,2.06-2.4,3.17h-.77l-.77-.86Q143.88,98.91,147.05,97Z"/><path class="cls-1" d="M176.69,58.4l1.2-1.2q8.31,2.57,8.74,4.8,11.56,9,11.56,24.67V88.2a38.64,38.64,0,0,1-3.6,16.7h-.77l-1.2,3.17-5.57,6.77a22.33,22.33,0,0,1-6.34,5.14q-6.77,5.57-18.33,5.57-14.13,0-22.27-14.3l-.34-1.54a4.5,4.5,0,0,1-1.2-2.83A40.77,40.77,0,0,1,136.17,95V92.14q0-10.45,5.14-17.47s2.8-2.63,7.19-6.34q2.74-3.08,2.74-5.57a34.14,34.14,0,0,1,20.3-6.34ZM165.21,64c-1.6-.17-9.16,1.51-9.16,3.17q-1,0-2.74,4.37l-.43.43a53.93,53.93,0,0,0-2.83,15.5l.86,9.51,1.2,6s.91,2.46,1.54,3.94a12.13,12.13,0,0,1,1.63,4.37q4.63,6.08,8.74,6.34h4.37q4.71,0,14.73-11.91l.34-2.4-.34-1.54-.43-2v-4l.43-7.11-.43-3.6h-.77v-3.6a34.14,34.14,0,0,1-2.4-7.54l-1.2-1.54V70q-2,0-4.8-3.6A31.79,31.79,0,0,0,166,63.54Z"/><path class="cls-1" d="M278.19,55.91m-11.13,10q-2.14,2.48-9.68,15.76v1.71q0,2.66,2.91,9.34,4.37,11.82,5.74,11.82,1.71,0,4.63,7.54.68,0,6.77,5.4a11.12,11.12,0,0,0,5.4,1.71q5.48,0,13.62-6.77l.34-1.8v-1.46q-1.89-2.48-3.25-2.48-2.83.26-2.83,1.8l.69,1.46H291q-1,0-1.46-2.91,0-2.14,4.37-3.17h2.14q3,0,3.94,5,0,7.28-10.79,16.45-4.37,2.23-6.08,2.23h-7.54a22.43,22.43,0,0,1-15.33-5.74L252.06,110q-.77-3.08-7.88-12.59-12.25,19.44-12.25,23.3,1.45,6.08,3.94,6.08v.77H223.71l-1.37-.43-.43.43h-1.37l-.77.6c-.46,0-2.14-.26-2.14-.26l-3.94-.34,2.57-3.25h.34q3.08,0,4.28-3.25l5.74-4.63a152,152,0,0,0,14.65-25.1,170.47,170.47,0,0,1-6.42-21.41q-3.77-8.39-9.34-10.79l-6.42-.69-.69.34-3.25-.34q-8.14,0-10,4.63,0,2.06,3.94,2.48h1.46l3.17-2.14H214v.43q0,1.71-5.65,3.51-5.4,0-7.88-3.51v-.43q0-3.85,17.13-17.13a21.62,21.62,0,0,1,7.19-1.11q8.14,1.71,8.91,2.48a25.24,25.24,0,0,1,9,5.4,31.75,31.75,0,0,1,5.74,10q3.42,3.85,6.77,12.93h.34Q267.4,57.88,267.4,54.11V52.66l-2.14-5.05v-.34s-2.9-2.48,4.71-2.48l20,1.11v.69Q276,52,276,56.94S268.88,61.88,267.05,65.93Zm8.57-8.31"/><path class="cls-1" d="M474.55,56.31c.36-.41.71-.78,1-1.14a.67.67,0,0,0,0-.18A16.26,16.26,0,0,1,474.55,56.31Zm-53.06-5.8L421,50h-.34v.42l1.12,1.46v-.81Z"/><path class="cls-1" d="M480.33.5c-3.38,1-5.05,2.34-5.05,3.95,0,1.41.94,2.5,2.83,3.25h.42V7.35l-1.46-2.14A3.93,3.93,0,0,1,481,3h1.1c3.26,0,5.07,1.09,5.41,3.25V7.69l-1.12,1.8q-9.5,5.14-14,5.13-1.53,1.36-11.56,2.14V15.65l-6.5.78A143,143,0,0,0,434,15H419.52v0c-.57,0-1.14.08-1.71.11h-.15c-2.53.36-5.07.75-7.62,1a32.87,32.87,0,0,1-9.92-.41h-4.42L394.59,15h-2.91q0,1.29-10.12,2.49v.42l.36.36v.34l-9.78,2.13q-12.67,5.31-21,18.52c-1.43,6.72-2.36,10.1-2.83,10.1l.34,3.59v2.92q3.44,3.92,6.51,3.93h1l2.24-.34q6.85-3,6.84-6.85c0-2.34-1.33-3.91-4-4.71l-2.49.34V49c1.93,0,3.13.6,3.59,1.79v.36c0,2-1.58,3.39-4.71,4l-1-.42c-1.49,0-2.23-1.69-2.23-5.05q0-8.14,10.1-14.81,5.31-2.41,6.51-3.61V30.9l-.34-.42v-.34h1.79l2.24-.7h.34l.34.34,2.14-.34h8.38c2.65,0,7.7,1.23,15.12,3.69a15.3,15.3,0,0,1,9.73,5.6,37,37,0,0,1,9.84,9.91l.86,1.87.26.26v.31l.68,1.49h.34q6.16,16.71,6.17,27.16l-1.8,17v2.91q0,9.43-1.12,12.69-4.19,8.82-9,13-4.9,10.45-29,10.46l-10.88-4.37q-10.53-4.56-15.5-17.3L360.58,105c.94-12.49,6.85-18.42,6.85-18.42q7.72-9.09,17.4-9.08h1.8c1.71,0,4.37,1.93,8,5.81,1.09,0,2.29,3.15,3.59,9.42l-.34,2.49c0,3.95-2.53,6.71-7.62,8.32l-3.95-.68a16.47,16.47,0,0,1-4-7.2c.45-2.92,1.9-4.37,4.37-4.37.39,0,.88.71,1.45,2.14,0,1.54-1,2.5-2.91,2.91V97h2.57a3.62,3.62,0,0,0,2.14-3.25V91.29A7.44,7.44,0,0,0,387,88.72h-2.49q-4.46,0-6.51,8.72v3.61c0,5.94,2.16,9.91,6.51,11.91,4.84,0,8.22-.34,10.1-1q11.57-6,11.56-20.3l-.62-5.83a7.74,7.74,0,0,1-1.75-3.61,25.77,25.77,0,0,0-.75-2.71l-.34-.71-1-2.19a18.25,18.25,0,0,0-14.75-7q-18.86,0-25.7,15.25s-5.2,7.26-6.85,19.52l.34,7.63q5.31,16.1,12.33,20.89Q375,140,390.22,140h5.83a32.75,32.75,0,0,0,12.67-2.49c4.29-.84,6.56-1.82,6.85-2.91a8.47,8.47,0,0,0,3.59-2.14c4.13-1.71,6.17-3.17,6.17-4.37q2.31-.34,10.1-8.64c3.26-4.4,5.2-8.36,5.83-11.91q5.38-13.72,5.39-15.59l-1.1-8,.42-1.8h.34L447,83v2.14h.78l.68-6.51v-.34L455,76.82l.76.68,5.39-3.61q7.14-2.56,10.75-7.26s5.52-7.89,7.59-7.89q5,1.8,5,4.29l.42,9.76-.42,13.61v1.12l.76,3.93V95.4l1,10-.7,3.59q0,9,3.61,14.39l5.73,2.92c0,1.36,2.52,2,7.54,2h1.46c3.13,0,5.28-.83,6.42-2.49q13.72-10.87,18-16.1l.76.68v3.61l.68.68-.34,1.1q0,5,2.83,7.54c2.24,1.84,5.49,3.15,9.78,3.95h.34l.34-.34q7.87-1.36,7.88-3.26,13.35-8.14,13.37-16.52v-2.49c-1.54-1.66-3-2.49-4.37-2.49h-1a4,4,0,0,0-2.13,3.93l.68.7h.34a3.28,3.28,0,0,1,1.1-2.49c1.72,0,2.66.71,2.83,2.13,0,3.49-2.62,5.9-7.88,7.2h-.68q-5,0-8-14.37V97.89l1.1-1.46V87.08h.68V85.72h-.68L545.6,76V67h.34l.68-17c0-1.59-.6-2.53-1.79-2.83-4.13,0-7.94,1.8-11.48,5.39q-3.26,3.87-3.25,29.82v1Q529,97.28,527.62,100c-3.15,4.22-4.71,6.63-4.71,7.2q-7.46,7.19-14.39,7.2-3,0-5.31-3.61-1-9.26-2.92-11.47v-7.2l.7-1v-8.3l1.1-9L501,66.28l.76-8.66v-1Q500,47.27,496,47.26H491.3l-1.8-.34v.34c-2.57,0-4.37.6-5.39,1.8-1.95.13-4.79,2.19-8.51,6.11-.32.36-.68.73-1,1.14l0,0,0,0a15.37,15.37,0,0,1-3.7,3.1c-.26.16-.54.29-.8.42a27.3,27.3,0,0,1-20.4,8.95h-2.92c0-.5-.71-1.48-2.14-2.91A43,43,0,0,0,440.85,54v-.28A13.94,13.94,0,0,1,438.66,50l-3.22-4q-8-9.06-15.58-11.91c-5.49-3.43-9.19-5.13-11.14-5.13v-.34q1-1.8,4.63-1.8h.76l1.8.34,2.14-.34h2.23l20.56.78q.85-.78,10.53-1.88l6.17,1.45h5.05q6.94,0,15.51-4.27,14.81-9,14.81-14.49c0-4.61-2.78-7.28-8.32-8"/><polygon class="cls-1" points="446.66 81.87 446.32 81.87 445.98 80.07 446.66 80.07 447 80.41 446.66 81.87"/><path class="cls-1" d="M607.1,102.68h-2.74v-.34c0-.23-.69.34-.69.34q-3.43,1.46-3.77,3.08c.86,1.6,2.06,1,2.06,1v-.69q0-.86,2.06-1h.69l.69.69v2.06q0,4.45-7.19,6.85-6.85-1.28-6.85-4.45L592,98.57,591,78.7l.69-5.14L591,69.79v-.34l1-1-.34-8.57L592,57.8l10.62-2.4.51.49a5.6,5.6,0,0,1,.59-.08c.22,0,.62-1.1.62-1.1l.69-1.37,2.06-3.43q0-2.06-3.43-4.11L602,45.46q0,1.71,1.37,1.71v.69l-.34.34-6.85,3.08-2.4-.69h-.34l-.34.34-1.37-.69.34-2.74-1-3.43v-2.4l.69-2.74a93.2,93.2,0,0,1-.69-13v-1h-.69a47.16,47.16,0,0,1-7.38,14.3,67.81,67.81,0,0,1-4.24,6.87,3.26,3.26,0,0,1-.91,1.47c-.25.43-.51.86-.74,1.31,0,0-.13.43-.31.48a4.21,4.21,0,0,1-2,1.65c-.07.11-.15.19-.22.31l-.49-.1a4.39,4.39,0,0,1-1.48,0l-.09.09Q565,53.43,565,57.8v.34q1.45,3.43,4.45,3.43h1.37q-2.4-2.06-2.4-2.74l2.4-2.06a12.61,12.61,0,0,0,5.14,1.71v1l-.69.69,1,13.36v4.8l-.34,1.71q1,2,1,11.31v6.51l-.69,2.06v.34l.34.34-1.37,5.48.34,6.85q0,11,4.11,12.33l-.09.26.38.16h0l.37.11c0-.16.76.05,1.28.33a5,5,0,0,1,.95.44,20.66,20.66,0,0,0,2.24.77q4.2,0,12-3.77l7.54-6.85,5.14-6.51q.94-4.11,1.71-4.11Q611.21,103,607.1,102.68Z"/><path class="cls-1" d="M574.55,51.29c7.92-6.82,14.35-26.68,15.76-26.38s-.27,23,1.37,25.35c1.77,2.58,12.07-2,12-4.45,0-.91,3.81,3.25,3.43,4.11-1.33,2.94-3.77,5.56-3.36,5.9,3.38,2.75-9.66-1.47-11.71,2-3.57,6,2.5,42.67-.69,52.42a3.58,3.58,0,0,0,1.06,2.19c1.58,1.88,4.63,2.44,7,1.84,4.78-1.24,7-7.5,6-8.48-.65-.65-3.43.34-3.43.34-.07.92-.14-1.94.31-2.75.94-1.68,6.53-1.87,7.92.35,2,3.2-4.88,11.11-9.49,15.19-3.81,3.37-11.11,8.26-17.61,7.87-5.08-.31-8.64-6.06-7.58-15.37,2.6-22.78,3.53-43.25.35-43.25-3,0,1.42-7.25.07-9.67-2-3.61-6.8-3.74-6.93,0-.06.85,1.92,2.72,1.79,3.08s-3,.43-4.47-1.29-.9-4.38.21-6C568.36,51.62,572.57,53,574.55,51.29Z"/><path class="cls-1" d="M697.63,102.25c-1.43.74-.74,2.83,0,2.14q2.57,0,2.83,2.14,0,5.22-7.88,7.19h-.69q-5,0-8-14.39V97.88L685,96.43V87.09h.12a10.15,10.15,0,0,1-.11-1.37h0L684.7,76V67H685l.69-17q0-2.4-1.8-2.83-6.17,0-11.48,5.4-3.26,3.85-3.25,29.81v1q-1.11,13.79-2.48,16.53-4.71,6.34-4.71,7.19-7.45,7.19-14.39,7.19-3,0-5.31-3.6-1-9.25-2.91-11.48V92.14l.69-1V82.81l1.11-9-1.11-7.54.77-8.65v-1q-1.71-9.34-5.74-9.34h-4.71l-1.8-.34v.34q-3.85,0-5.4,1.8-3.85.26-12.25,10.36l-1,1.46v.34l1,5.4,2.57.77h.69q2.23,0,3.94-2.57v-1l-1.37,1.46a2.38,2.38,0,0,1-2.57-1.8q1.28-4.71,4.37-4.71,5,1.8,5,4.28l.43,9.76-.43,13.62v1.11l.77,3.94V95.4l1,10-.69,3.6q0,9,3.6,14.39l5.74,2.91q0,2.06,7.54,2.06H643q4.71,0,6.42-2.48,13.7-10.88,18-16.1l.77.69v3.6l.69.69-.34,1.11q0,5,2.83,7.54,3.34,2.74,9.76,3.94h.34l.34-.34q7.88-1.37,7.88-3.25Q703,115.61,703,107.22v-2.48q-2.31-2.48-4.37-2.48Z"/><path class="cls-1" d="M752.28,46.32,749.11,46q-6.68,0-15.85,11.31-1.2-6.34-5.31-6.34h-.69l-8.82,4.2a70.78,70.78,0,0,0-9.16,11.65q-5.65,4.11-5.65,9.94s.48,1.51.61,1.91a4.24,4.24,0,0,0,2.56,1.26h.34a4.5,4.5,0,0,0,1.94-.7,1.9,1.9,0,0,0,.2-1.79h-.77a1.81,1.81,0,0,1-2.06-1.8c1-2.34,5-4.07,5-4.07,4-.94,8.73,4.38,6.89,7.16-1.14,1.72-.06,4.12-.14,6.17A2.87,2.87,0,0,1,719.59,87c.36,5-.95,9.82-1,14.87-.06,4.8.68,9.58.87,14.38.25,6.38-.12,17.57,1.14,16.13,1.6-.12,11.22-7,11.22-7h.43l.32-.32a2.57,2.57,0,0,1-.34-.8c-1.47-6.44.61-12.37.43-18.76-.06-2.1-.36-4.38-.31-6.58a22.67,22.67,0,0,1,1-11.74L733.6,76v-.34l.69-5.65V64.74q3.94-3.94,6-3.94h2.14q3.34,0,4.63,7.11v1.71q-2.14,9.59-6,9.59h-.43c-1.14-.63-1.06,2.6,2.48,3.17l.77-.77q3.85,0,7.37-4.54,4.63-5.57,4.63-7.79,3.85-6.42,3.85-9.16v-5Q759.73,50.69,752.28,46.32Z"/><polygon class="cls-1" points="769.92 77.07 770.35 77.41 770.35 77.75 769.92 78.1 769.58 78.1 769.24 77.75 769.24 77.41 769.58 77.07 769.92 77.07"/><polygon class="cls-1" points="780.2 121.18 780.54 121.52 780.54 121.87 780.2 122.21 779.86 122.21 779.51 121.87 779.51 121.52 779.86 121.18 780.2 121.18"/><path class="cls-1" d="M840.5,110.56q0-2.74-3.43-2.74c-2.28,0-3.08,2-1.71,1.71l1.37,1.37v.69q-2.23,5.82-5.82,5.82-4.37,0-5.14-8.91v-6.17l-1.71-12.68V86.23a50.39,50.39,0,0,0,1.71-12.68v-12q0-5.65,5.48-7.19,2.06.77,2.4,2.06s3.08-.11,3.08-2.06q0-3.85-8.91-4.8l-7.19.34c-1.2.91-4.11,0-4.11,0l-3.43.34h-1.37l-1-.69h-2.4s-3.43.57-3.43,0l-8.22,1.37-1.37-.34-1.37.69c-2.8.57-8.22,3.43-8.22,3.43q-13.45,8.48-17.47,17.13a8.79,8.79,0,0,1-2.4,5.82V81.1Q761,90.77,761,98.57l.69,3.43v3.43l-.69,2.06,1.37,6.51q4.28,13,12,13h.69q3.68,0,11.65-4.45c2.25-1,17.14-11.69,22.88-15.83a2.14,2.14,0,0,1,3.24.92c2,4.87,6.86,15.2,12.78,17.46,2.93-.35,6.52-1.35,8.74-3.24h0q6.17-6.68,6.17-10.28Zm-30.37-14.4a2.13,2.13,0,0,1-.32,1.62,2.2,2.2,0,0,1-2.63,1.67l-2.84,1.49a14.61,14.61,0,0,1-3.68,1.85l-.24.24h-.34l0,0-1.15.48a.47.47,0,0,1,.08.24c-.87.23-1.67.41-2.47.59a21.34,21.34,0,0,1-5,.91,24.12,24.12,0,0,1-2.82.21h-1.71q-6.94-2.66-9.59-8.57v-1l-.34-3.77.08-.16c-.78-6.92.83-16.41,4.31-22.32a10.24,10.24,0,0,1,1.66-2.1c1.09-3.27,3.88-5.29,7.16-6.33.74-.72,1.48-1.4,2.21-2q8.39-4.11,15.42-4.11h.34a5.58,5.58,0,0,1,.4,1.28,2.4,2.4,0,0,1,.84,1.86C809.77,71,812.44,83.46,810.13,96.16Z"/><line class="cls-1" x1="835.36" y1="134.2" x2="835.7" y2="134.54"/><line class="cls-1" x1="839.13" y1="134.2" x2="839.13" y2="134.54"/></svg>